<svg id="Layer_1" data-name="Layer 1" xmlns="http://www.w3.org/2000/svg" viewBox="0 0 112.63 22.57"><defs><style>.cls-1{fill:#203492;}.cls-2{fill:#fff;}.cls-3{fill:#fb1415;}.cls-4{fill:#1c3894;}</style></defs><title>logo</title><path class="cls-1" d="M107.18.43a2.33,2.33,0,0,1,1.78.79,2.63,2.63,0,0,1,.73,1.88A2.66,2.66,0,0,1,109,5a2.4,2.4,0,0,1-3.56,0,2.66,2.66,0,0,1-.73-1.9,2.63,2.63,0,0,1,.73-1.88,2.34,2.34,0,0,1,1.78-.79m2.93,2.67a3.07,3.07,0,0,0-.86-2.19,2.8,2.8,0,0,0-4.13,0,3.06,3.06,0,0,0-.85,2.19,3.12,3.12,0,0,0,.84,2.2,2.79,2.79,0,0,0,4.14,0,3.11,3.11,0,0,0,.86-2.2M108,2.43a.53.53,0,0,1-.34.53,1.5,1.5,0,0,1-.54.07h-.51V1.82h.48a1.47,1.47,0,0,1,.69.12.54.54,0,0,1,.22.49m-2-1v3.4h.57V3.46H107a1.33,1.33,0,0,1,.63.11.87.87,0,0,1,.31.78v.41a0,0,0,0,1,0,0h.53l0,0a.89.89,0,0,1,0-.17c0-.09,0-.18,0-.26V4.07a.92.92,0,0,0-.17-.52.77.77,0,0,0-.55-.33,1.17,1.17,0,0,0,.46-.17.76.76,0,0,0,.32-.67.87.87,0,0,0-.5-.87,2.4,2.4,0,0,0-.88-.12Z"/><rect class="cls-2" y="1.39" width="14.17" height="21.21"/><path class="cls-3" d="M16.29,1.39H98.13A5.42,5.42,0,0,1,103.38,7V17a5.42,5.42,0,0,1-5.25,5.58H16.29V1.39"/><polygon class="cls-3" points="0 1.39 14.17 1.39 14.17 5.17 0 9.61 0 1.39"/><polygon class="cls-3" points="14.17 7.55 0 12.03 0 13.19 14.17 8.73 14.17 7.55"/><polygon class="cls-4" points="0 10.51 14.17 6.09 14.17 5.17 0 9.61 0 10.51"/><polygon class="cls-4" points="14.17 8.73 0 13.19 0 22.6 14.17 22.6 14.17 8.73"/><polygon class="cls-2" points="65.58 4.43 69.85 4.43 69.85 7.03 65.58 8.26 65.58 4.43"/><polygon class="cls-2" points="69.85 7.98 65.58 9.23 65.58 18.24 69.85 18.24 69.85 7.98"/><path class="cls-2" d="M75.22,8.57a7.6,7.6,0,0,1,3.89-.91c2.5,0,4.69,1.76,4.69,4v6.58H79.18V13.37a1.84,1.84,0,0,0-2-2.08,1.88,1.88,0,0,0-2,1.88v5.07H70.71V7.88h4.51v.69"/><path class="cls-2" d="M94.23,8.57c-.73-.47-1.52-.91-3.85-.91-2.12,0-5.88,1.17-5.88,5,0,3.21,2.5,4.91,5.6,4.91s4.13-1.09,4.13-1.09,0,2-3.85,2C86.85,18.36,85.65,17,85.65,17l-1.06,2.53s2,1.39,6.68,1.39,7.14-1.32,7.14-4.34V7.88H94.23v.69m-4.9,4.1a2.45,2.45,0,0,1,4.74,0,2.45,2.45,0,0,1-4.74,0"/><path class="cls-2" d="M34.72,15c-.73,3-4.34,3.52-7.14,3.52-5,0-7.19-2.55-7.19-5.6,0-3.44,2.6-5.55,7.27-5.55,4,0,7.17,2,7.17,5.65,0,.43,0,.79,0,1.18H25.5c.12.81,1,1.32,2.18,1.32s1.81.05,2.14-.67l4.9.15M30,11.64a2.2,2.2,0,0,0-2.24-1.34,2.26,2.26,0,0,0-2.23,1.35Z"/><path class="cls-2" d="M49.78,18.24l-4.36,0,0-.65a7,7,0,0,1-3,.93c-4.61.32-6.67-2.13-6.69-5.36,0-3.44,2.65-5.88,7-5.48a6,6,0,0,1,2.73.88V4.43h4.41V18.24m-9.23-5.12a2.43,2.43,0,0,0,4.81,0,2.43,2.43,0,0,0-4.81,0"/><path class="cls-2" d="M64.68,18.24l-4.36,0,0-.65a7,7,0,0,1-3,.93c-4.61.32-6.67-2.13-6.69-5.36,0-3.44,2.65-5.88,7-5.48a6,6,0,0,1,2.74.88V4.43h4.41V18.24m-9.23-5.12a2.43,2.43,0,0,0,4.81,0,2.43,2.43,0,0,0-4.81,0"/></svg>